<svg xmlns="http://www.w3.org/2000/svg" xmlns:xlink="http://www.w3.org/1999/xlink" width="100" zoomAndPan="magnify" viewBox="0 0 75 74.999997" height="100" preserveAspectRatio="xMidYMid meet" version="1.0"><defs><clipPath id="0a8533a669"><path d="M 65.492188 44.410156 L 72.863281 44.410156 L 72.863281 51.785156 L 65.492188 51.785156 Z M 65.492188 44.410156 " clip-rule="nonzero"/></clipPath><clipPath id="9e7b6a857f"><path d="M 58.515625 48.046875 L 66.898438 48.046875 L 66.898438 54.546875 L 58.515625 54.546875 Z M 58.515625 48.046875 " clip-rule="nonzero"/></clipPath></defs><path fill="#cb6ce6" d="M 75 37.5 C 75 38.726562 74.941406 39.953125 74.820312 41.175781 C 74.699219 42.398438 74.519531 43.609375 74.28125 44.816406 C 74.039062 46.019531 73.742188 47.210938 73.386719 48.386719 C 73.027344 49.5625 72.617188 50.714844 72.144531 51.851562 C 71.675781 52.984375 71.152344 54.09375 70.570312 55.175781 C 69.992188 56.261719 69.363281 57.3125 68.679688 58.332031 C 67.996094 59.355469 67.265625 60.339844 66.488281 61.289062 C 65.707031 62.238281 64.886719 63.148438 64.015625 64.015625 C 63.148438 64.886719 62.238281 65.707031 61.289062 66.488281 C 60.339844 67.265625 59.355469 67.996094 58.332031 68.679688 C 57.3125 69.363281 56.261719 69.992188 55.175781 70.570312 C 54.09375 71.152344 52.984375 71.675781 51.851562 72.144531 C 50.714844 72.617188 49.5625 73.027344 48.386719 73.386719 C 47.210938 73.742188 46.019531 74.039062 44.816406 74.28125 C 43.609375 74.519531 42.398438 74.699219 41.175781 74.820312 C 39.953125 74.941406 38.726562 75 37.5 75 C 36.273438 75 35.046875 74.941406 33.824219 74.820312 C 32.601562 74.699219 31.390625 74.519531 30.183594 74.28125 C 28.980469 74.039062 27.789062 73.742188 26.613281 73.386719 C 25.4375 73.027344 24.285156 72.617188 23.148438 72.144531 C 22.015625 71.675781 20.90625 71.152344 19.824219 70.570312 C 18.738281 69.992188 17.6875 69.363281 16.667969 68.679688 C 15.644531 67.996094 14.660156 67.265625 13.710938 66.488281 C 12.761719 65.707031 11.851562 64.886719 10.984375 64.015625 C 10.113281 63.148438 9.292969 62.238281 8.511719 61.289062 C 7.734375 60.339844 7.003906 59.355469 6.320312 58.332031 C 5.636719 57.3125 5.007812 56.261719 4.429688 55.175781 C 3.847656 54.09375 3.324219 52.984375 2.855469 51.851562 C 2.382812 50.714844 1.972656 49.5625 1.613281 48.386719 C 1.257812 47.210938 0.960938 46.019531 0.71875 44.816406 C 0.480469 43.609375 0.300781 42.398438 0.179688 41.175781 C 0.0585938 39.953125 0 38.726562 0 37.5 C 0 36.273438 0.0585938 35.046875 0.179688 33.824219 C 0.300781 32.601562 0.480469 31.390625 0.71875 30.183594 C 0.960938 28.980469 1.257812 27.789062 1.613281 26.613281 C 1.972656 25.4375 2.382812 24.285156 2.855469 23.148438 C 3.324219 22.015625 3.847656 20.90625 4.429688 19.824219 C 5.007812 18.738281 5.636719 17.6875 6.320312 16.667969 C 7.003906 15.644531 7.734375 14.660156 8.511719 13.710938 C 9.292969 12.761719 10.113281 11.851562 10.984375 10.984375 C 11.851562 10.113281 12.761719 9.292969 13.710938 8.511719 C 14.660156 7.734375 15.644531 7.003906 16.667969 6.320312 C 17.6875 5.636719 18.738281 5.007812 19.824219 4.429688 C 20.90625 3.847656 22.015625 3.324219 23.148438 2.855469 C 24.285156 2.382812 25.4375 1.972656 26.613281 1.613281 C 27.789062 1.257812 28.980469 0.960938 30.183594 0.71875 C 31.390625 0.480469 32.601562 0.300781 33.824219 0.179688 C 35.046875 0.0585938 36.273438 0 37.5 0 C 38.726562 0 39.953125 0.0585938 41.175781 0.179688 C 42.398438 0.300781 43.609375 0.480469 44.816406 0.71875 C 46.019531 0.960938 47.210938 1.257812 48.386719 1.613281 C 49.5625 1.972656 50.714844 2.382812 51.851562 2.855469 C 52.984375 3.324219 54.09375 3.847656 55.175781 4.429688 C 56.261719 5.007812 57.3125 5.636719 58.332031 6.320312 C 59.355469 7.003906 60.339844 7.734375 61.289062 8.511719 C 62.238281 9.292969 63.148438 10.113281 64.015625 10.984375 C 64.886719 11.851562 65.707031 12.761719 66.488281 13.710938 C 67.265625 14.660156 67.996094 15.644531 68.679688 16.667969 C 69.363281 17.6875 69.992188 18.738281 70.570312 19.824219 C 71.152344 20.90625 71.675781 22.015625 72.144531 23.148438 C 72.617188 24.285156 73.027344 25.4375 73.386719 26.613281 C 73.742188 27.789062 74.039062 28.980469 74.28125 30.183594 C 74.519531 31.390625 74.699219 32.601562 74.820312 33.824219 C 74.941406 35.046875 75 36.273438 75 37.5 Z M 75 37.5 " fill-opacity="1" fill-rule="nonzero"/><path fill="#3f3232" d="M 23.1875 42.292969 C 19.363281 43.1875 16.894531 39.765625 13.921875 39.214844 C 13.144531 39.070312 12.335938 39.125 11.460938 39.5 C 11.210938 39.605469 10.988281 39.726562 10.785156 39.859375 C 10.160156 40.269531 9.746094 40.792969 9.457031 41.378906 C 8.253906 43.820312 9.238281 47.320312 6.164062 47.972656 C 2.117188 48.824219 0.714844 45.28125 1.621094 44.453125 C 2.519531 43.632812 5.242188 44.503906 5.144531 40.785156 C 5.144531 40.753906 5.144531 40.722656 5.140625 40.691406 C 5.0625 38.648438 6.601562 36.3125 8.8125 35.136719 C 10.523438 34.222656 12.632812 34.007812 14.707031 35.160156 C 14.980469 35.3125 15.253906 35.488281 15.523438 35.6875 C 20.488281 39.375 25.542969 39.886719 25.542969 39.886719 C 25.542969 39.886719 28.007812 41.164062 23.1875 42.292969 " fill-opacity="1" fill-rule="nonzero"/><path fill="#3f3232" d="M 52.03125 41.730469 C 46.570312 43.265625 38.179688 41.421875 38.179688 41.421875 C 37.339844 42.730469 36.125 43.4375 35.207031 43.804688 C 35.890625 44.207031 36.355469 44.8125 36.222656 45.710938 C 36.136719 46.3125 35.328125 46.707031 34.078125 46.878906 C 32.253906 47.128906 29.480469 46.902344 26.601562 46.144531 C 26.117188 46.011719 25.625 45.871094 25.136719 45.710938 C 20.699219 44.261719 19.3125 38.695312 23.234375 34.496094 C 24.046875 33.625 25.089844 32.8125 26.382812 32.109375 C 27.613281 31.441406 28.84375 30.941406 30.046875 30.570312 C 36.203125 28.683594 41.574219 30.238281 41.574219 30.238281 C 57.101562 31.839844 57.488281 40.195312 52.03125 41.730469 " fill-opacity="1" fill-rule="nonzero"/><path fill="#4c4242" d="M 50.410156 27.296875 L 53.234375 28.953125 L 56.8125 31.050781 C 56.8125 31.050781 59.265625 25.117188 58.191406 22.894531 C 58.085938 22.679688 57.949219 22.496094 57.769531 22.359375 C 55.773438 20.820312 50.410156 27.296875 50.410156 27.296875 " fill-opacity="1" fill-rule="nonzero"/><path fill="#f3a294" d="M 52.617188 28.675781 L 55.867188 30.886719 C 55.867188 30.886719 58.554688 25.441406 57.683594 23.273438 L 57.679688 23.273438 C 57.679688 23.273438 56.1875 21.9375 52.617188 28.675781 " fill-opacity="1" fill-rule="nonzero"/><path fill="#4c4242" d="M 44.519531 26.546875 L 42.324219 28.566406 L 39.542969 31.125 C 39.542969 31.125 36.242188 26.332031 36.773438 24.148438 C 36.824219 23.9375 36.914062 23.75 37.046875 23.59375 C 38.527344 21.835938 44.519531 26.546875 44.519531 26.546875 " fill-opacity="1" fill-rule="nonzero"/><path fill="#f3a294" d="M 42.847656 28.710938 L 40.214844 31.132812 C 40.214844 31.132812 37.085938 26.59375 37.589844 24.527344 L 37.59375 24.527344 C 37.59375 24.527344 38.761719 23.128906 42.847656 28.710938 " fill-opacity="1" fill-rule="nonzero"/><path fill="#4c4242" d="M 54.203125 36.113281 C 52.464844 36.785156 50.519531 37.25 48.796875 37.367188 C 46.644531 37.511719 44.59375 37.417969 42.835938 37.109375 C 40.878906 36.769531 39.289062 36.167969 38.324219 35.359375 C 37.410156 34.589844 37.421875 34.015625 37.664062 33.632812 C 37.46875 33.445312 37.289062 33.21875 37.136719 32.9375 C 36.144531 31.121094 37.847656 31.089844 37.847656 31.089844 C 37.714844 29.042969 40.285156 25.910156 44.402344 24.523438 C 45.304688 24.222656 46.285156 24 47.324219 23.894531 C 48.5 23.777344 49.597656 23.90625 50.601562 24.1875 C 54.117188 25.175781 56.460938 28.03125 56.910156 28.617188 C 58.015625 28.609375 58.246094 29.550781 58.207031 30.449219 C 58.519531 30.542969 58.769531 30.730469 58.933594 31.027344 C 59.96875 32.867188 57.449219 34.855469 54.203125 36.113281 " fill-opacity="1" fill-rule="nonzero"/><path fill="#fce8dc" d="M 48.539062 30.066406 C 48.539062 30.066406 49.878906 31.886719 52.296875 31.496094 C 52.9375 31.394531 53.648438 31.136719 54.433594 30.648438 C 54.433594 30.648438 53.691406 27.898438 51.496094 27.738281 C 49.183594 27.570312 48.539062 30.066406 48.539062 30.066406 " fill-opacity="1" fill-rule="nonzero"/><path fill="#3a2e2d" d="M 48.539062 30.066406 C 48.539062 30.066406 49.453125 31.308594 51.128906 31.519531 C 51.972656 31.628906 52.730469 31.015625 52.796875 30.160156 C 52.863281 29.300781 52.421875 28.628906 52.035156 28.214844 C 51.699219 27.851562 51.195312 27.683594 50.710938 27.789062 C 49.035156 28.148438 48.539062 30.066406 48.539062 30.066406 " fill-opacity="1" fill-rule="nonzero"/><path fill="#fce8dc" d="M 45.832031 30.085938 C 45.832031 30.085938 44.515625 31.925781 42.09375 31.566406 C 41.453125 31.472656 40.734375 31.226562 39.945312 30.75 C 39.945312 30.75 40.652344 27.988281 42.84375 27.796875 C 45.152344 27.597656 45.832031 30.085938 45.832031 30.085938 " fill-opacity="1" fill-rule="nonzero"/><path fill="#3a2e2d" d="M 45.832031 30.085938 C 45.832031 30.085938 44.933594 31.339844 43.261719 31.574219 C 42.417969 31.695312 41.652344 31.09375 41.574219 30.238281 C 41.496094 29.378906 41.929688 28.703125 42.308594 28.28125 C 42.644531 27.914062 43.144531 27.742188 43.628906 27.835938 C 45.308594 28.175781 45.832031 30.085938 45.832031 30.085938 " fill-opacity="1" fill-rule="nonzero"/><path fill="#7a6767" d="M 42.835938 37.109375 C 44.59375 37.417969 46.644531 37.515625 48.796875 37.367188 C 50.519531 37.25 52.464844 36.785156 54.203125 36.113281 C 53.796875 35.394531 51.128906 30.996094 47.101562 31.355469 C 43.570312 31.667969 42.332031 34.789062 42.835938 37.109375 " fill-opacity="1" fill-rule="nonzero"/><path fill="#f3a294" d="M 47.171875 32.398438 C 47.171875 32.398438 45.886719 32.253906 45.777344 31.414062 C 45.636719 30.367188 48.25 30.1875 48.269531 31.285156 C 48.28125 32.03125 47.171875 32.398438 47.171875 32.398438 " fill-opacity="1" fill-rule="nonzero"/><path fill="#fff8f5" d="M 39.75 32.039062 C 39.746094 32.039062 39.738281 32.039062 39.730469 32.035156 C 39.71875 32.03125 38.597656 31.578125 36.601562 31.097656 C 34.757812 30.65625 31.773438 30.097656 28.015625 29.96875 C 27.984375 29.964844 27.960938 29.941406 27.960938 29.910156 C 27.960938 29.878906 27.984375 29.851562 28.015625 29.855469 C 31.785156 29.988281 34.78125 30.542969 36.628906 30.988281 C 38.632812 31.46875 39.761719 31.925781 39.773438 31.929688 C 39.800781 31.941406 39.8125 31.976562 39.804688 32.003906 C 39.792969 32.027344 39.773438 32.039062 39.75 32.039062 " fill-opacity="1" fill-rule="nonzero"/><path fill="#fff8f5" d="M 39.246094 33.015625 C 39.242188 33.015625 39.238281 33.015625 39.230469 33.015625 C 39.203125 33.007812 36.167969 32.28125 32.160156 32.339844 C 32.128906 32.339844 32.105469 32.316406 32.105469 32.285156 C 32.105469 32.253906 32.128906 32.230469 32.160156 32.230469 C 36.183594 32.171875 39.226562 32.898438 39.257812 32.90625 C 39.289062 32.914062 39.304688 32.941406 39.300781 32.972656 C 39.292969 33 39.269531 33.015625 39.246094 33.015625 " fill-opacity="1" fill-rule="nonzero"/><path fill="#fff8f5" d="M 55.605469 32.167969 C 55.578125 32.167969 55.558594 32.148438 55.550781 32.125 C 55.542969 32.09375 55.558594 32.0625 55.589844 32.054688 C 55.636719 32.042969 60.417969 30.707031 64.351562 31.433594 C 64.382812 31.441406 64.402344 31.46875 64.398438 31.5 C 64.390625 31.53125 64.363281 31.550781 64.332031 31.546875 C 60.421875 30.820312 55.667969 32.152344 55.621094 32.164062 C 55.613281 32.164062 55.609375 32.167969 55.605469 32.167969 " fill-opacity="1" fill-rule="nonzero"/><path fill="#fff8f5" d="M 62.949219 34.042969 C 62.941406 34.042969 62.933594 34.039062 62.925781 34.035156 C 62.921875 34.035156 62.242188 33.714844 61.007812 33.441406 C 59.867188 33.191406 58 32.933594 55.601562 33.125 C 55.570312 33.128906 55.542969 33.105469 55.539062 33.074219 C 55.539062 33.042969 55.5625 33.015625 55.589844 33.011719 C 58.007812 32.820312 59.886719 33.082031 61.035156 33.332031 C 62.28125 33.605469 62.96875 33.929688 62.976562 33.933594 C 63.003906 33.949219 63.015625 33.980469 63 34.011719 C 62.992188 34.03125 62.972656 34.042969 62.949219 34.042969 " fill-opacity="1" fill-rule="nonzero"/><path fill="#ccc0ba" d="M 59.175781 50.292969 C 60.988281 48.753906 64.75 45.492188 67.09375 43.054688 C 67.507812 42.625 67.273438 41.898438 66.6875 41.800781 C 63.09375 41.207031 53.1875 39.550781 47.328125 38.492188 C 46.574219 38.355469 45.796875 38.53125 45.171875 38.988281 C 43.195312 40.425781 38.785156 43.742188 36.9375 46 C 36.582031 46.433594 36.828125 47.097656 37.375 47.203125 L 56.820312 50.921875 C 57.660156 51.082031 58.523438 50.851562 59.175781 50.292969 " fill-opacity="1" fill-rule="nonzero"/><path fill="#b2a39d" d="M 62.824219 44.164062 L 61.234375 45.667969 L 59.230469 47.574219 L 57.097656 49.597656 C 56.996094 49.691406 56.855469 49.734375 56.71875 49.707031 L 40.101562 46.59375 C 39.722656 46.523438 39.613281 46.023438 39.929688 45.796875 L 47.070312 40.65625 C 47.167969 40.585938 47.285156 40.558594 47.402344 40.582031 L 58.515625 42.644531 L 60.6875 43.050781 L 62.601562 43.40625 C 62.957031 43.472656 63.085938 43.917969 62.824219 44.164062 " fill-opacity="1" fill-rule="nonzero"/><path fill="#918783" d="M 61.234375 45.667969 L 59.230469 47.574219 L 55.101562 46.546875 L 56.304688 44.707031 L 61.234375 45.667969 " fill-opacity="1" fill-rule="nonzero"/><path fill="#918783" d="M 60.6875 43.050781 L 59.523438 44.132812 L 57.34375 43.636719 L 58.515625 42.644531 L 60.6875 43.050781 " fill-opacity="1" fill-rule="nonzero"/><path fill="#ede8e5" d="M 36.9375 46 C 36.9375 46 34.386719 37.757812 33.460938 32.042969 C 33.355469 31.378906 33.921875 30.804688 34.582031 30.914062 C 38.054688 31.484375 47.679688 33.082031 54.339844 34.351562 C 54.730469 34.425781 55.039062 34.734375 55.113281 35.128906 C 55.609375 37.675781 57.449219 46.945312 58.558594 50.054688 L 36.9375 46 " fill-opacity="1" fill-rule="nonzero"/><path fill="#ccc0ba" d="M 46.445312 41.511719 C 46.386719 41.609375 46.316406 41.699219 46.238281 41.78125 C 46.226562 41.796875 46.210938 41.8125 46.199219 41.824219 C 46.085938 41.929688 45.960938 42.015625 45.824219 42.082031 C 45.621094 42.179688 45.390625 42.234375 45.152344 42.242188 C 44.472656 42.269531 43.71875 41.941406 43.21875 41.28125 C 42.613281 40.476562 42.578125 39.425781 43.019531 38.765625 C 43.078125 38.671875 43.148438 38.589844 43.222656 38.515625 C 43.316406 38.429688 43.417969 38.355469 43.527344 38.296875 C 43.6875 38.207031 43.867188 38.148438 44.054688 38.121094 C 44.21875 38.09375 44.386719 38.089844 44.558594 38.109375 C 45.15625 38.171875 45.773438 38.492188 46.203125 39.0625 C 46.785156 39.839844 46.839844 40.847656 46.445312 41.511719 " fill-opacity="1" fill-rule="nonzero"/><path fill="#4c4242" d="M 57.105469 36.960938 C 56.519531 36.464844 55.527344 36.644531 55.050781 37.316406 C 54.65625 37.878906 54.292969 38.785156 54.601562 40.050781 C 55.171875 42.382812 56.765625 42.363281 57.507812 41.6875 C 58.433594 40.84375 58.332031 37.996094 57.105469 36.960938 " fill-opacity="1" fill-rule="nonzero"/><g clip-path="url(#0a8533a669)"><path fill="#db8b49" d="M 72.648438 46.277344 C 72.628906 46.230469 72.605469 46.183594 72.582031 46.140625 C 72.5625 46.09375 72.539062 46.046875 72.515625 46.003906 C 72.496094 45.957031 72.472656 45.910156 72.449219 45.867188 C 72.425781 45.820312 72.40625 45.773438 72.378906 45.730469 C 72.359375 45.683594 72.339844 45.636719 72.3125 45.59375 C 71.660156 44.101562 68.925781 43.828125 66.890625 46.027344 C 65.449219 47.589844 65.351562 48.753906 65.628906 49.535156 C 65.640625 49.585938 65.65625 49.632812 65.675781 49.683594 C 65.6875 49.734375 65.703125 49.785156 65.71875 49.832031 C 65.734375 49.882812 65.75 49.933594 65.765625 49.980469 C 65.78125 50.03125 65.796875 50.082031 65.8125 50.128906 C 65.824219 50.183594 65.839844 50.230469 65.859375 50.28125 C 65.914062 50.488281 65.996094 50.667969 66.089844 50.828125 C 66.445312 51.425781 67.097656 51.765625 67.78125 51.738281 C 68.78125 51.703125 70.476562 51.257812 72.113281 49.046875 C 72.945312 47.925781 73.023438 46.960938 72.648438 46.277344 " fill-opacity="1" fill-rule="nonzero"/></g><path fill="#f2a25a" d="M 67.472656 50.820312 C 66.796875 50.84375 66.15625 50.511719 65.8125 49.925781 C 65.363281 49.167969 65.183594 47.875 66.890625 46.027344 C 69.824219 42.855469 74.214844 44.824219 71.726562 48.175781 C 70.113281 50.34375 68.453125 50.78125 67.472656 50.820312 " fill-opacity="1" fill-rule="nonzero"/><path fill="#c47337" d="M 70.753906 49.292969 C 68.429688 47.4375 65.878906 47.53125 65.855469 47.535156 L 65.847656 47.421875 C 65.875 47.417969 68.464844 47.320312 70.824219 49.207031 L 70.753906 49.292969 " fill-opacity="1" fill-rule="nonzero"/><path fill="#c47337" d="M 68.167969 47.871094 L 68.078125 47.804688 C 68.09375 47.78125 69.769531 45.335938 71.324219 44.609375 L 71.371094 44.710938 C 69.84375 45.421875 68.1875 47.84375 68.167969 47.871094 " fill-opacity="1" fill-rule="nonzero"/><g clip-path="url(#9e7b6a857f)"><path fill="#3a2e2d" d="M 61.128906 54.546875 C 60.207031 54.546875 59.441406 54.277344 58.9375 53.769531 C 58.652344 53.476562 58.515625 53.148438 58.53125 52.785156 C 58.578125 51.800781 59.757812 50.824219 60.703125 50.039062 C 61.121094 49.691406 61.515625 49.363281 61.640625 49.160156 C 61.757812 48.96875 61.710938 48.871094 61.695312 48.835938 C 61.582031 48.59375 61.058594 48.4375 60.753906 48.394531 L 60.796875 48.058594 C 60.898438 48.074219 61.769531 48.203125 61.996094 48.691406 C 62.0625 48.828125 62.101562 49.050781 61.925781 49.339844 C 61.773438 49.589844 61.394531 49.902344 60.917969 50.300781 C 60.066406 51.003906 58.90625 51.96875 58.867188 52.804688 C 58.851562 53.070312 58.953125 53.308594 59.175781 53.53125 C 59.695312 54.054688 60.597656 54.292969 61.652344 54.179688 C 63.558594 53.972656 65.5 52.726562 66.601562 51 L 66.882812 51.183594 C 65.484375 53.378906 63.28125 54.34375 61.6875 54.515625 C 61.496094 54.535156 61.308594 54.546875 61.128906 54.546875 " fill-opacity="1" fill-rule="nonzero"/></g><path fill="#f9f9f9" d="M 45.824219 42.082031 C 45.621094 42.179688 45.390625 42.234375 45.152344 42.242188 L 43.019531 38.765625 C 43.078125 38.671875 43.148438 38.589844 43.222656 38.515625 C 43.316406 38.429688 43.417969 38.355469 43.527344 38.296875 L 45.824219 42.082031 " fill-opacity="1" fill-rule="nonzero"/><path fill="#f9f9f9" d="M 46.445312 41.511719 C 46.386719 41.609375 46.316406 41.699219 46.238281 41.78125 L 44.054688 38.121094 C 44.21875 38.09375 44.386719 38.089844 44.558594 38.109375 L 46.445312 41.511719 " fill-opacity="1" fill-rule="nonzero"/><path fill="#595151" d="M 29.636719 35.640625 C 29.015625 36.089844 28.335938 36.164062 27.75 36.09375 C 27.628906 37.199219 26.96875 38.238281 25.617188 38.097656 C 23.871094 37.914062 23.375 35.648438 23.234375 34.496094 C 24.046875 33.625 25.089844 32.8125 26.382812 32.109375 C 27.613281 31.441406 28.84375 30.941406 30.046875 30.570312 C 31.273438 32.007812 31.050781 34.617188 29.636719 35.640625 " fill-opacity="1" fill-rule="nonzero"/><path fill="#595151" d="M 34.078125 46.878906 C 32.253906 47.128906 29.480469 46.902344 26.601562 46.144531 C 27.378906 45.160156 28.886719 43.683594 30.84375 43.847656 C 32.699219 44 33.640625 45.683594 34.078125 46.878906 " fill-opacity="1" fill-rule="nonzero"/><path fill="#595151" d="M 9.457031 41.378906 C 8.253906 43.820312 9.238281 47.320312 6.164062 47.972656 C 2.117188 48.824219 0.714844 45.28125 1.621094 44.453125 C 2.519531 43.632812 5.242188 44.503906 5.144531 40.785156 C 5.371094 41.566406 5.777344 42.285156 6.488281 42.507812 C 7.851562 42.941406 8.25 41.8125 9.457031 41.378906 " fill-opacity="1" fill-rule="nonzero"/><path fill="#595151" d="M 13.921875 39.214844 C 13.144531 39.070312 12.335938 39.125 11.460938 39.5 C 11.210938 39.605469 10.988281 39.726562 10.785156 39.859375 C 8.652344 38.441406 8.597656 36.386719 8.8125 35.136719 C 10.523438 34.222656 12.632812 34.007812 14.707031 35.160156 C 13.417969 36.589844 13.605469 38.214844 13.921875 39.214844 " fill-opacity="1" fill-rule="nonzero"/><path fill="#261e1d" d="M 35.207031 43.863281 C 35.195312 43.863281 35.183594 43.859375 35.171875 43.847656 C 35.164062 43.84375 34.25 43.113281 31.382812 42.703125 C 31.355469 42.699219 31.335938 42.679688 31.335938 42.652344 C 31.332031 42.625 31.347656 42.601562 31.371094 42.59375 C 31.390625 42.585938 33.476562 41.742188 33.394531 39.207031 C 33.390625 39.175781 33.414062 39.148438 33.445312 39.148438 C 33.476562 39.144531 33.503906 39.171875 33.503906 39.203125 C 33.574219 41.382812 32.09375 42.347656 31.582031 42.617188 C 34.339844 43.035156 35.207031 43.730469 35.242188 43.761719 C 35.265625 43.78125 35.269531 43.816406 35.25 43.839844 C 35.238281 43.855469 35.222656 43.863281 35.207031 43.863281 " fill-opacity="1" fill-rule="nonzero"/><path fill="#595151" d="M 50.601562 24.1875 C 50.480469 25.324219 50.179688 27.261719 49.53125 27.164062 C 49.15625 27.105469 48.832031 26.492188 48.578125 25.789062 C 48.300781 27.003906 47.820312 28.257812 47.019531 28.195312 C 46.480469 28.152344 46.164062 27.566406 45.984375 26.828125 C 45.824219 27.410156 45.59375 27.828125 45.25 27.8125 C 44.402344 27.765625 44.375 25.492188 44.402344 24.523438 C 45.304688 24.222656 46.285156 24 47.324219 23.894531 C 48.5 23.777344 49.597656 23.90625 50.601562 24.1875 " fill-opacity="1" fill-rule="nonzero"/><path fill="#b5acac" d="M 44.277344 29.3125 C 44.082031 29.332031 43.898438 29.503906 43.902344 29.714844 C 43.902344 29.949219 44.140625 30.125 44.367188 30.101562 C 44.5625 30.082031 44.75 29.910156 44.746094 29.699219 C 44.742188 29.464844 44.503906 29.289062 44.277344 29.3125 " fill-opacity="1" fill-rule="nonzero"/><path fill="#b5acac" d="M 49.925781 29.28125 C 49.726562 29.300781 49.542969 29.472656 49.546875 29.679688 C 49.550781 29.914062 49.789062 30.09375 50.011719 30.070312 C 50.210938 30.050781 50.394531 29.878906 50.390625 29.667969 C 50.386719 29.433594 50.148438 29.257812 49.925781 29.28125 " fill-opacity="1" fill-rule="nonzero"/><path fill="#4c4242" d="M 61.730469 48.3125 C 61.730469 48.335938 61.730469 48.359375 61.726562 48.382812 C 61.683594 48.726562 61.347656 48.945312 61.019531 48.84375 L 60.878906 48.800781 C 60.585938 48.707031 60.492188 48.332031 60.710938 48.113281 L 60.9375 47.886719 C 61.042969 47.777344 61.199219 47.738281 61.34375 47.78125 C 61.574219 47.855469 61.730469 48.074219 61.730469 48.3125 " fill-opacity="1" fill-rule="nonzero"/><path fill="#4c4242" d="M 67.019531 51.019531 C 67.148438 51.082031 67.191406 51.242188 67.113281 51.359375 L 67.0625 51.441406 C 66.957031 51.597656 66.785156 51.6875 66.605469 51.6875 C 66.53125 51.6875 66.453125 51.671875 66.382812 51.640625 C 66.074219 51.5 65.960938 51.113281 66.148438 50.824219 C 66.210938 50.730469 66.335938 50.695312 66.4375 50.742188 L 67.019531 51.019531 " fill-opacity="1" fill-rule="nonzero"/></svg>